<?xml version="1.0" standalone="no"?>
<!DOCTYPE svg PUBLIC "-//W3C//DTD SVG 20010904//EN"
 "http://www.w3.org/TR/2001/REC-SVG-20010904/DTD/svg10.dtd">
<svg version="1.0" xmlns="http://www.w3.org/2000/svg"
 width="428.000000pt" height="423.000000pt" viewBox="0 0 428.000000 423.000000"
 preserveAspectRatio="xMidYMid meet">
<metadata>
Created by potrace 1.16, written by Peter Selinger 2001-2019
</metadata>
<g transform="translate(0.000000,423.000000) scale(0.100000,-0.100000)"
fill="#000000" stroke="none">
<path d="M1960 4139 c-222 -20 -498 -97 -704 -198 -754 -370 -1208 -1164
-1137 -1984 57 -640 377 -1181 917 -1544 348 -235 831 -360 1255 -324 678 56
1254 415 1602 996 311 518 367 1165 152 1741 -275 734 -947 1245 -1730 1313
-135 12 -217 12 -355 0z m516 -383 c155 -33 269 -73 419 -147 164 -81 288
-172 430 -314 491 -491 629 -1226 350 -1856 -86 -194 -192 -347 -355 -510
-364 -366 -876 -540 -1387 -474 -282 37 -518 129 -755 294 -118 82 -313 277
-401 401 -346 488 -403 1141 -146 1680 156 327 442 621 758 779 161 81 368
144 556 170 124 17 394 5 531 -23z"/>
<path d="M1845 3746 c-237 -46 -470 -144 -658 -277 -127 -90 -310 -273 -399
-399 -135 -190 -238 -438 -280 -670 -27 -156 -27 -396 2 -564 115 -672 625
-1199 1303 -1348 145 -32 444 -36 603 -9 674 114 1206 625 1355 1303 30 135
37 405 15 558 -105 725 -644 1282 -1365 1410 -164 29 -411 27 -576 -4z m1555
-894 c16 -13 29 -49 50 -137 46 -189 43 -199 -66 -225 -42 -9 -56 -9 -73 2
-25 15 -22 8 -61 173 -29 127 -29 131 -11 155 12 16 35 29 67 37 67 15 69 15
94 -5z m-465 -114 c47 -205 64 -271 71 -278 5 -5 38 -2 73 6 42 10 67 12 74 5
21 -21 -4 -39 -77 -55 -88 -20 -111 -12 -126 44 -34 133 -62 270 -57 284 9 24
36 20 42 -6z m-347 -238 c39 -88 72 -164 72 -170 0 -5 -9 -10 -20 -10 -13 0
-27 14 -40 40 -22 43 -32 46 -92 29 -37 -10 -38 -11 -38 -58 0 -36 -4 -51 -17
-55 -9 -4 -20 -3 -24 1 -4 4 -9 89 -11 188 l-3 179 40 12 c22 6 45 9 50 7 6
-2 43 -75 83 -163z m-528 40 c0 -10 -6 -23 -14 -27 -13 -7 -11 -23 10 -113 13
-58 26 -115 29 -126 3 -12 14 -24 25 -27 11 -3 20 -14 20 -25 0 -15 -11 -22
-44 -31 -59 -14 -63 -14 -70 6 -5 11 -1 22 10 30 15 11 14 21 -12 138 -24 110
-31 128 -51 136 -51 19 -8 56 70 58 20 1 27 -4 27 -19z m-195 -214 c20 -87 34
-165 31 -172 -11 -28 -35 -14 -46 26 -35 137 -27 123 -72 117 -60 -8 -64 -16
-45 -99 17 -78 15 -88 -12 -88 -15 0 -24 28 -56 165 -20 90 -35 171 -31 180 9
25 35 17 42 -12 16 -73 25 -103 32 -107 5 -3 27 0 50 6 47 12 49 17 31 99 -9
42 -9 53 2 60 25 15 36 -13 74 -175z m-387 86 c30 -23 42 -96 18 -105 -16 -7
-36 19 -36 47 0 8 -4 17 -8 20 -10 6 -83 -12 -95 -23 -9 -9 11 -99 25 -107 5
-3 31 0 59 6 42 10 53 10 73 -3 39 -26 61 -152 32 -177 -8 -6 -39 -18 -68 -26
-72 -19 -104 -6 -118 47 -6 22 -8 44 -5 49 13 21 35 9 50 -26 11 -26 19 -34
32 -30 10 3 31 8 47 12 27 7 28 8 22 52 -3 26 -10 50 -15 55 -5 5 -32 4 -65
-4 -80 -17 -94 -2 -121 127 -9 44 19 73 85 89 30 7 57 14 60 14 3 0 15 -7 28
-17z m-279 -212 c46 -197 45 -200 -51 -226 -71 -19 -104 -6 -117 45 -21 77
-61 260 -61 276 0 16 26 32 36 22 3 -3 20 -69 38 -147 18 -77 37 -145 42 -150
15 -15 94 10 94 29 0 9 -14 78 -31 155 -27 115 -29 140 -18 147 24 14 35 -11
68 -151z m-379 62 c28 -23 40 -96 16 -105 -16 -7 -36 19 -36 47 0 8 -4 17 -8
20 -10 6 -83 -12 -95 -23 -9 -9 11 -99 23 -106 5 -3 31 0 60 6 66 14 93 -2
109 -65 25 -101 13 -123 -85 -146 -65 -14 -90 -2 -105 53 -17 65 20 82 46 21
11 -26 19 -34 32 -30 10 3 31 8 47 12 27 7 28 8 22 52 -3 26 -10 50 -15 55 -5
5 -32 4 -65 -4 -80 -17 -94 -2 -121 127 -9 44 19 73 85 89 30 7 58 14 61 14 4
1 17 -7 29 -17z m2070 -100 c16 -13 29 -49 50 -137 46 -189 43 -199 -66 -225
-42 -9 -56 -9 -73 2 -25 15 -22 8 -61 173 -29 127 -29 131 -12 155 12 15 36
28 68 36 68 16 69 16 94 -4z m-330 -80 c16 -13 29 -49 50 -137 45 -186 43
-195 -52 -221 -107 -28 -100 -36 -142 150 -21 91 -36 170 -34 178 3 7 33 20
69 29 83 22 83 22 109 1z m-326 -85 c16 -17 27 -45 36 -95 11 -62 11 -74 -3
-95 -22 -34 -6 -94 26 -99 34 -5 29 -42 -6 -46 -38 -5 -64 20 -72 69 -6 35
-10 39 -37 39 l-31 0 7 -47 c12 -87 12 -88 -10 -91 -19 -3 -24 11 -58 162 -21
91 -36 170 -34 178 4 11 107 44 146 47 7 1 23 -10 36 -22z m-335 -64 c16 -13
30 -50 51 -142 17 -67 30 -136 30 -152 0 -35 -24 -52 -96 -69 -42 -9 -56 -9
-73 2 -25 15 -22 8 -61 173 -29 127 -29 131 -12 155 12 15 36 28 68 36 68 16
69 16 93 -3z m-332 -78 c26 -18 50 -92 34 -108 -14 -14 -41 -1 -41 21 0 10 -6
26 -12 35 -11 14 -19 15 -53 6 -22 -6 -43 -14 -47 -17 -8 -8 46 -240 58 -252
5 -5 27 -4 52 2 44 11 50 23 36 76 -5 16 -14 22 -35 22 -22 0 -29 5 -29 20 0
14 11 22 41 30 23 6 45 8 49 3 11 -12 30 -97 30 -132 0 -37 -23 -54 -96 -71
-42 -9 -56 -9 -73 2 -25 15 -22 8 -60 173 -35 151 -32 166 41 185 24 6 48 13
53 15 20 7 31 5 52 -10z"/>
<path d="M3322 2810 c-19 -4 -38 -12 -42 -16 -9 -10 42 -240 56 -254 5 -5 27
-4 52 2 36 9 42 14 41 37 -1 43 -53 235 -64 237 -5 1 -25 -2 -43 -6z"/>
<path d="M2812 2120 c-19 -4 -38 -12 -42 -16 -9 -10 42 -240 56 -254 5 -5 27
-4 52 2 36 9 42 14 41 37 -1 43 -53 235 -64 237 -5 1 -25 -2 -43 -6z"/>
<path d="M2480 2038 c-19 -5 -38 -13 -42 -16 -8 -8 46 -240 58 -252 5 -5 27
-4 52 2 36 9 42 14 41 37 -1 43 -53 235 -64 237 -5 1 -26 -2 -45 -8z"/>
<path d="M1813 1889 c-18 -5 -34 -13 -37 -17 -6 -10 49 -241 60 -252 5 -5 27
-4 52 2 51 13 52 18 14 168 -29 112 -32 116 -89 99z"/>
</g>
</svg>
